<svg xmlns="http://www.w3.org/2000/svg" width="58" height="40" viewBox="0 0 58 40">
    <g fill="none" fill-rule="evenodd">
        <path fill="#ffffff" d="M13.257 32.4a18.64 18.64 0 0 1-2.825-9.891c0-1.246.122-2.488.366-3.709l2.25.464a16.557 16.557 0 0 0-.322 3.245 16.3 16.3 0 0 0 2.473 8.653L13.257 32.4zM47.468 26l-2.078-.424c.133-.652.22-1.312.264-1.976l2.12.14a17.13 17.13 0 0 1-.306 2.26zM45.26 21.2c-.34-4.666-2.905-8.963-7.02-11.766L39.753 7.6c4.703 3.205 7.633 8.119 8.021 13.452l-2.514.148z"/>
        <path fill="#1d177c" d="M43.801 22c0 7.953-6.403 14.4-14.301 14.4-7.898 0-14.301-6.447-14.301-14.4S21.602 7.6 29.5 7.6c7.898 0 14.301 6.447 14.301 14.4zM50.158 29.2h2.383v2.4h-2.383zM13.61 37.2h2.383v2.4H13.61zM.897 26.8h2.384v2.4H.897zM20.76.4h2.384v2.4H20.76z"/>
        <path fill="#1d177c" d="M55.426 19.6v-2.4h2.342v-2.4h-2.342v-2.4h-2.341v2.4h-2.342v2.4h2.342v2.4z"/>
        <path fill="#1d177c" d="M10.975 10V7.6H8.633V5.2H6.292v2.4H3.95V10h2.342v2.4h2.341V10z"/>
        <path fill="#ffffff" fill-rule="nonzero" d="M37.166 22.552c-.522-1.36-1.687-2.342-3.08-2.597a4.297 4.297 0 0 0-.64-3.519 4.012 4.012 0 0 0-3.038-1.717l-.58-1.519-2.174.887.429 1.123-2.176.887-.43-1.125-2.175.886.429 1.124-2.176.886.858 2.249 1.088-.442 1.715 4.496 1.714 4.498-1.089.443.857 2.248 2.174-.885.43 1.125 2.174-.887-.428-1.123 2.175-.887.43 1.125 2.175-.886-.45-1.18c1.763-1.04 2.524-3.256 1.788-5.21zm-2.176.885c.17.448.163.947-.023 1.389a1.783 1.783 0 0 1-.967.964l-4.895 1.993-1.287-3.373 4.895-1.993c.902-.368 1.92.09 2.276 1.02zm-3.231-5.176c.355.93-.088 1.983-.99 2.35l-1.903.775-1.903.776-1.287-3.373 3.809-1.55c.9-.367 1.919.09 2.274 1.022z"/>
    </g>
</svg>
